<svg width="53" height="37" viewBox="0 0 53 37" fill="none" xmlns="http://www.w3.org/2000/svg">
<path d="M51.2471 5.71845C50.6493 3.47102 48.8809 1.69806 46.6309 1.09042C42.5626 3.9691e-07 26.2396 0 26.2396 0C26.2396 0 9.92501 3.9691e-07 5.84843 1.09042C3.60672 1.68973 1.83826 3.4627 1.23217 5.71845C0.144531 9.79711 0.144531 18.3124 0.144531 18.3124C0.144531 18.3124 0.144531 26.8276 1.23217 30.9063C1.82996 33.1537 3.59842 34.9267 5.84843 35.5343C9.92501 36.6247 26.2396 36.6247 26.2396 36.6247C26.2396 36.6247 42.5626 36.6247 46.6309 35.5343C48.8726 34.935 50.641 33.162 51.2471 30.9063C52.3348 26.8276 52.3348 18.3124 52.3348 18.3124C52.3348 18.3124 52.3348 9.79711 51.2471 5.71845Z" fill="#FF3000"/>
<path d="M21.0256 26.1617L34.5838 18.3124L21.0256 10.463V26.1617Z" fill="white"/>
</svg>
