<svg width="47" height="46" viewBox="0 0 47 46" fill="none" xmlns="http://www.w3.org/2000/svg">
<path d="M0.890625 45.8405L4.1753 33.6381C1.52629 28.8847 0.684676 23.3378 1.80489 18.0154C2.9251 12.693 5.932 7.95198 10.2738 4.66243C14.6156 1.37287 20.0011 -0.244596 25.4421 0.106827C30.883 0.45825 36.0144 2.75499 39.8946 6.5756C43.7749 10.3962 46.1437 15.4844 46.5664 20.9065C46.989 26.3286 45.4373 31.7208 42.1958 36.0938C38.9543 40.4668 34.2405 43.5271 28.9195 44.7133C23.5984 45.8994 18.027 45.1318 13.2276 42.5513L0.890625 45.8405ZM13.8224 37.985L14.5854 38.4365C18.0617 40.4918 22.122 41.3423 26.1336 40.8555C30.1451 40.3687 33.8825 38.5719 36.7634 35.7452C39.6443 32.9185 41.5068 29.2206 42.0607 25.2279C42.6146 21.2351 41.8288 17.1717 39.8257 13.6709C37.8226 10.1701 34.7148 7.4285 30.9865 5.87344C27.2582 4.31838 23.119 4.03716 19.2137 5.0736C15.3085 6.11004 11.8567 8.40593 9.39618 11.6035C6.93568 14.801 5.60473 18.7206 5.61073 22.7514C5.60746 26.0937 6.53414 29.3712 8.28761 32.2192L8.76609 33.0061L6.92977 39.8167L13.8224 37.985Z" fill="#00D95F"/>
<path fill-rule="evenodd" clip-rule="evenodd" d="M32.3404 25.8847C31.8931 25.5249 31.3694 25.2716 30.8091 25.1442C30.2489 25.0168 29.6669 25.0186 29.1074 25.1495C28.2669 25.4977 27.7237 26.8134 27.1806 27.4713C27.0661 27.629 26.8978 27.7396 26.7073 27.7823C26.5168 27.8251 26.3173 27.797 26.1461 27.7034C23.0687 26.5012 20.4893 24.2965 18.8267 21.4475C18.6848 21.2697 18.6177 21.044 18.6394 20.8178C18.6612 20.5916 18.77 20.3827 18.943 20.235C19.5488 19.6368 19.9936 18.8959 20.2362 18.0809C20.2901 17.1818 20.0836 16.2863 19.6414 15.5011C19.2995 14.4002 18.6488 13.42 17.7663 12.6762C17.3111 12.472 16.8063 12.4036 16.313 12.4791C15.8197 12.5546 15.3588 12.7709 14.9859 13.1019C14.3386 13.6589 13.8249 14.3537 13.4825 15.135C13.14 15.9163 12.9777 16.7643 13.0074 17.6165C13.0093 18.0951 13.0702 18.5716 13.1884 19.0354C13.4887 20.1497 13.9505 21.2144 14.5592 22.1956C14.9983 22.9473 15.4775 23.6749 15.9946 24.3755C17.6751 26.6767 19.7876 28.6305 22.2148 30.1284C23.4328 30.8897 24.7345 31.5086 26.0943 31.973C27.5069 32.6117 29.0665 32.8568 30.6075 32.6824C31.4855 32.5499 32.3174 32.2041 33.03 31.6755C33.7426 31.1469 34.314 30.4518 34.694 29.6512C34.9172 29.1675 34.985 28.6269 34.8879 28.1033C34.6552 27.0327 33.2197 26.4007 32.3404 25.8847Z" fill="#00D95F"/>
</svg>
