<svg width="42" height="42" viewBox="0 0 42 42" fill="none" xmlns="http://www.w3.org/2000/svg">
<path d="M22.3159 26.775L26.8449 22.225C27.1643 21.9042 27.324 21.4958 27.324 21C27.324 20.5042 27.1643 20.0958 26.8449 19.775L22.2723 15.1813C21.9529 14.8604 21.554 14.707 21.0756 14.721C20.596 14.7362 20.1965 14.9042 19.8771 15.225C19.5578 15.5458 19.3981 15.9542 19.3981 16.45C19.3981 16.9458 19.5578 17.3542 19.8771 17.675L21.4449 19.25H15.8271C15.3335 19.25 14.927 19.4174 14.6077 19.7522C14.2883 20.0882 14.1286 20.5042 14.1286 21C14.1286 21.4958 14.2959 21.9112 14.6303 22.246C14.9636 22.582 15.377 22.75 15.8706 22.75H21.4449L19.8336 24.3687C19.5142 24.6896 19.3615 25.0909 19.3754 25.5728C19.3905 26.0534 19.5578 26.4542 19.8771 26.775C20.1965 27.0958 20.6029 27.2563 21.0965 27.2563C21.59 27.2563 21.9965 27.0958 22.3159 26.775ZM21.0965 38.5C18.6868 38.5 16.4222 38.0403 14.3028 37.121C12.1835 36.2028 10.3399 34.9563 8.77211 33.3813C7.20435 31.8063 5.96349 29.9542 5.04954 27.825C4.13443 25.6958 3.67688 23.4208 3.67688 21C3.67688 18.5792 4.13443 16.3042 5.04954 14.175C5.96349 12.0458 7.20435 10.1938 8.77211 8.61875C10.3399 7.04375 12.1835 5.79658 14.3028 4.87725C16.4222 3.95908 18.6868 3.5 21.0965 3.5C23.5062 3.5 25.7707 3.95908 27.8901 4.87725C30.0095 5.79658 31.8531 7.04375 33.4209 8.61875C34.9886 10.1938 36.2295 12.0458 37.1434 14.175C38.0585 16.3042 38.5161 18.5792 38.5161 21C38.5161 23.4208 38.0585 25.6958 37.1434 27.825C36.2295 29.9542 34.9886 31.8063 33.4209 33.3813C31.8531 34.9563 30.0095 36.2028 27.8901 37.121C25.7707 38.0403 23.5062 38.5 21.0965 38.5Z" fill="url(#paint0_linear_44_79)"/>
<defs>
<linearGradient id="paint0_linear_44_79" x1="4" y1="21" x2="41" y2="21" gradientUnits="userSpaceOnUse">
<stop stop-color="#030E22"/>
<stop offset="1" stop-color="#0058A6" stop-opacity="0.33"/>
</linearGradient>
</defs>
</svg>
