<svg width="43" height="42" viewBox="0 0 43 42" fill="none" xmlns="http://www.w3.org/2000/svg">
<path d="M20.1802 15.225L15.6511 19.775C15.3318 20.0958 15.1721 20.5042 15.1721 21C15.1721 21.4958 15.3318 21.9042 15.6511 22.225L20.2238 26.8187C20.5431 27.1396 20.9421 27.293 21.4205 27.279C21.9001 27.2638 22.2996 27.0958 22.619 26.775C22.9383 26.4542 23.098 26.0458 23.098 25.55C23.098 25.0542 22.9383 24.6458 22.619 24.325L21.0512 22.75H26.669C27.1626 22.75 27.5691 22.5826 27.8884 22.2478C28.2078 21.9118 28.3675 21.4958 28.3675 21C28.3675 20.5042 28.2002 20.0888 27.8658 19.754C27.5325 19.418 27.119 19.25 26.6255 19.25L21.0512 19.25L22.6625 17.6312C22.9819 17.3104 23.1346 16.9091 23.1207 16.4273C23.1056 15.9466 22.9383 15.5458 22.619 15.225C22.2996 14.9042 21.8932 14.7438 21.3996 14.7438C20.9061 14.7438 20.4996 14.9042 20.1802 15.225V15.225ZM21.3996 3.5C23.8093 3.5 26.0739 3.95967 28.1933 4.879C30.3126 5.79717 32.1562 7.04375 33.724 8.61875C35.2917 10.1937 36.5326 12.0458 37.4465 14.175C38.3617 16.3042 38.8192 18.5792 38.8192 21C38.8192 23.4208 38.3617 25.6958 37.4465 27.825C36.5326 29.9542 35.2917 31.8062 33.724 33.3812C32.1562 34.9562 30.3126 36.2034 28.1933 37.1228C26.0739 38.0409 23.8093 38.5 21.3996 38.5C18.9899 38.5 16.7254 38.0409 14.606 37.1228C12.4866 36.2034 10.643 34.9562 9.07524 33.3812C7.50748 31.8062 6.26662 29.9542 5.35268 27.825C4.43757 25.6958 3.98001 23.4208 3.98001 21C3.98001 18.5792 4.43757 16.3042 5.35268 14.175C6.26662 12.0458 7.50748 10.1937 9.07524 8.61875C10.643 7.04375 12.4866 5.79717 14.606 4.879C16.7254 3.95967 18.9899 3.5 21.3996 3.5Z" fill="url(#paint0_linear_44_86)"/>
<defs>
<linearGradient id="paint0_linear_44_86" x1="39" y1="21" x2="4" y2="21" gradientUnits="userSpaceOnUse">
<stop stop-color="#030E22"/>
<stop offset="1" stop-color="#0058A6" stop-opacity="0.33"/>
</linearGradient>
</defs>
</svg>
