<svg width="45" height="45" viewBox="0 0 45 45" fill="none" xmlns="http://www.w3.org/2000/svg">
<g clip-path="url(#clip0_63_2242)">
<path d="M22.5 0.703125C10.4619 0.703125 0.703125 10.4619 0.703125 22.5C0.703125 34.5381 10.4619 44.2969 22.5 44.2969C34.5381 44.2969 44.2969 34.5381 44.2969 22.5C44.2969 10.4619 34.5381 0.703125 22.5 0.703125ZM32.795 31.1795C32.6551 31.3436 29.299 35.1988 23.1401 35.1988C15.6965 35.1988 10.4413 29.6388 10.4413 22.4048C10.4413 15.259 15.8909 9.80121 23.0767 9.80121C28.9615 9.80121 32.0384 13.0808 32.1665 13.2205C32.3243 13.3925 32.4206 13.612 32.4402 13.8445C32.4599 14.0771 32.4019 14.3097 32.2753 14.5057L30.3083 17.5516C29.9524 18.1024 29.1856 18.1977 28.7057 17.7533C28.6852 17.7345 26.374 15.6545 23.267 15.6545C19.2139 15.6545 16.7705 18.6054 16.7705 22.3414C16.7705 25.822 19.0129 29.3455 23.2988 29.3455C26.6999 29.3455 29.0362 26.8549 29.0595 26.8297C29.5105 26.3406 30.2951 26.3873 30.6861 26.9222L32.8436 29.8729C32.9836 30.0644 33.055 30.2975 33.0462 30.5346C33.0373 30.7717 32.9488 30.9989 32.795 31.1795Z" fill="#0069BF"/>
</g>
<defs>
<clipPath id="clip0_63_2242">
<rect width="45" height="45" fill="white"/>
</clipPath>
</defs>
</svg>
