<svg width="42" height="42" viewBox="0 0 42 42" fill="none" xmlns="http://www.w3.org/2000/svg">
<path d="M15.75 28H19.25V14H15.75V28ZM22.75 28H26.25V14H22.75V28ZM21 38.5C18.5792 38.5 16.3042 38.0403 14.175 37.121C12.0458 36.2028 10.1938 34.9563 8.61875 33.3813C7.04375 31.8063 5.79717 29.9542 4.879 27.825C3.95967 25.6958 3.5 23.4208 3.5 21C3.5 18.5792 3.95967 16.3042 4.879 14.175C5.79717 12.0458 7.04375 10.1938 8.61875 8.61875C10.1938 7.04375 12.0458 5.79658 14.175 4.87725C16.3042 3.95908 18.5792 3.5 21 3.5C23.4208 3.5 25.6958 3.95908 27.825 4.87725C29.9542 5.79658 31.8063 7.04375 33.3813 8.61875C34.9563 10.1938 36.2028 12.0458 37.121 14.175C38.0403 16.3042 38.5 18.5792 38.5 21C38.5 23.4208 38.0403 25.6958 37.121 27.825C36.2028 29.9542 34.9563 31.8063 33.3813 33.3813C31.8063 34.9563 29.9542 36.2028 27.825 37.121C25.6958 38.0403 23.4208 38.5 21 38.5Z" fill="#0089F2"/>
</svg>
