<svg width="14" height="21" viewBox="0 0 14 21" fill="none" xmlns="http://www.w3.org/2000/svg">
<path d="M1.30435 20.5348C0.591304 20.5348 0 19.9435 0 19.2305V11.7696C0 11.0565 0.591304 10.4652 1.30435 10.4652C2.01739 10.4652 2.6087 11.0565 2.6087 11.7696V19.2305C2.6087 19.9609 2.01739 20.5348 1.30435 20.5348Z" fill="#F0FAFF"/>
<path d="M6.52163 20.4913C5.80859 20.4913 5.21729 19.9 5.21729 19.187V6.76956C5.21729 6.05651 5.80859 5.46521 6.52163 5.46521C7.23468 5.46521 7.82598 6.05651 7.82598 6.76956V19.187C7.82598 19.9174 7.23468 20.4913 6.52163 20.4913Z" fill="#F0FAFF"/>
<path d="M11.7392 20.4652C11.0261 20.4652 10.4348 19.8739 10.4348 19.1609V1.76956C10.4348 1.05651 11.0261 0.46521 11.7392 0.46521C12.4522 0.46521 13.0435 1.05651 13.0435 1.76956V19.1609C13.0435 19.8739 12.4522 20.4652 11.7392 20.4652Z" fill="#F0FAFF"/>
</svg>
