<svg width="304" height="66" viewBox="0 0 304 66" fill="none" xmlns="http://www.w3.org/2000/svg">
<path d="M94.4856 10.3067C93.3736 6.24766 90.1083 3.05786 85.9536 1.97131C78.431 5.90086e-07 48.2516 0 48.2516 0C48.2516 0 18.0725 5.90086e-07 10.5496 1.97131C6.39491 3.05786 3.12993 6.24766 2.01777 10.3067C6.03994e-07 17.6564 0 33 0 33C0 33 6.03994e-07 48.3437 2.01777 55.6934C3.12993 59.7524 6.39491 62.9422 10.5496 64.0286C18.0725 66 48.2516 66 48.2516 66C48.2516 66 78.431 66 85.9536 64.0286C90.1083 62.9422 93.3736 59.7524 94.4856 55.6934C96.5035 48.3437 96.5035 33 96.5035 33C96.5035 33 96.4954 17.6564 94.4856 10.3067Z" fill="#FF0000"/>
<path d="M38.5921 47.1418L63.6633 33.0013L38.5921 18.8606V47.1418Z" fill="white"/>
<path d="M116.879 42.9119L106.044 4.68091H115.497L119.294 22.0113C120.263 26.2799 120.97 29.9198 121.431 32.9311H121.709C122.027 30.7735 122.742 27.1569 123.846 22.0734L127.778 4.68091H137.232L126.261 42.9119V61.2513H116.871V42.9119H116.879Z" fill="black"/>
<path d="M140.075 60.039C138.169 58.7817 136.81 56.8258 136 54.1716C135.198 51.5174 134.793 47.994 134.793 43.5855V37.5861C134.793 33.1391 135.254 29.5614 136.175 26.8683C137.097 24.1752 138.534 22.2039 140.489 20.9699C142.443 19.7359 145.009 19.115 148.186 19.115C151.316 19.115 153.819 19.7436 155.709 21.0009C157.592 22.2582 158.974 24.2295 159.848 26.8993C160.722 29.5769 161.159 33.1391 161.159 37.5861V43.5855C161.159 47.994 160.73 51.5329 159.88 54.2026C159.03 56.8803 157.648 58.8362 155.741 60.07C153.834 61.3042 151.245 61.925 147.98 61.925C144.611 61.9326 141.982 61.2963 140.075 60.039ZM150.768 53.5664C151.292 52.216 151.563 50.0196 151.563 46.9618V34.0862C151.563 31.1213 151.3 28.9482 150.768 27.5823C150.236 26.2086 149.307 25.5256 147.972 25.5256C146.685 25.5256 145.771 26.2086 145.247 27.5823C144.715 28.956 144.453 31.1213 144.453 34.0862V46.9618C144.453 50.0196 144.707 52.2236 145.215 53.5664C145.724 54.9168 146.637 55.5919 147.972 55.5919C149.307 55.5919 150.236 54.9168 150.768 53.5664Z" fill="black"/>
<path d="M191.91 61.2592H184.458L183.632 56.199H183.426C181.4 60.0174 178.365 61.9265 174.314 61.9265C171.51 61.9265 169.436 61.0262 168.102 59.2337C166.767 57.4329 166.1 54.6236 166.1 50.8051V19.9238H175.625V50.2616C175.625 52.109 175.831 53.4204 176.244 54.2045C176.657 54.9882 177.349 55.3839 178.318 55.3839C179.144 55.3839 179.938 55.1357 180.701 54.6391C181.464 54.1421 182.02 53.5134 182.393 52.7531V19.916H191.91V61.2592Z" fill="black"/>
<path d="M217.784 12.1689H208.33V61.2575H199.012V12.1689H189.559V4.68726H217.784V12.1689Z" fill="black"/>
<path d="M240.757 61.2592H233.306L232.48 56.199H232.273C230.248 60.0174 227.213 61.9265 223.161 61.9265C220.357 61.9265 218.284 61.0262 216.949 59.2337C215.615 57.4329 214.947 54.6236 214.947 50.8051V19.9238H224.472V50.2616C224.472 52.109 224.679 53.4204 225.092 54.2045C225.505 54.9882 226.196 55.3839 227.165 55.3839C227.991 55.3839 228.786 55.1357 229.548 54.6391C230.311 54.1421 230.867 53.5134 231.24 52.7531V19.916H240.757V61.2592Z" fill="black"/>
<path d="M272.279 26.5276C271.699 23.9199 270.77 22.034 269.483 20.862C268.196 19.6901 266.425 19.1081 264.169 19.1081C262.421 19.1081 260.784 19.5892 259.267 20.5594C257.75 21.5295 256.574 22.7946 255.748 24.37H255.676V2.59253H246.501V61.2505H254.366L255.335 57.3391H255.541C256.28 58.7359 257.384 59.8302 258.854 60.6453C260.324 61.4525 261.96 61.8561 263.755 61.8561C266.973 61.8561 269.348 60.4048 270.865 57.5097C272.383 54.607 273.145 50.0824 273.145 43.9203V37.3777C273.145 32.7597 272.851 29.1353 272.279 26.5276ZM263.549 43.3923C263.549 46.4035 263.422 48.763 263.167 50.4704C262.913 52.1779 262.492 53.3965 261.889 54.1103C261.293 54.832 260.482 55.1891 259.473 55.1891C258.687 55.1891 257.964 55.0106 257.297 54.6459C256.63 54.2889 256.09 53.7457 255.676 53.0316V29.5699C255.994 28.4446 256.55 27.5288 257.337 26.807C258.115 26.0852 258.973 25.7282 259.887 25.7282C260.856 25.7282 261.602 26.1008 262.127 26.8381C262.659 27.5831 263.024 28.8249 263.231 30.5789C263.438 32.3329 263.541 34.8241 263.541 38.0604V43.3923H263.549Z" fill="black"/>
<path d="M286.657 45.7748C286.657 48.429 286.737 50.4159 286.896 51.7432C287.055 53.0701 287.388 54.0327 287.897 54.6458C288.405 55.2511 289.184 55.5537 290.24 55.5537C291.662 55.5537 292.647 55.0105 293.172 53.9317C293.704 52.853 293.99 51.0525 294.038 48.5379L302.252 49.0111C302.299 49.3681 302.323 49.8648 302.323 50.4934C302.323 54.3119 301.25 57.168 299.114 59.054C296.977 60.9399 293.95 61.8867 290.042 61.8867C285.347 61.8867 282.058 60.4509 280.175 57.5716C278.285 54.6924 277.347 50.2453 277.347 44.2225V37.0047C277.347 30.8037 278.324 26.2713 280.279 23.4152C282.233 20.5591 285.577 19.1311 290.32 19.1311C293.585 19.1311 296.095 19.7132 297.843 20.8851C299.59 22.057 300.821 23.8731 301.537 26.3489C302.252 28.8247 302.609 32.2395 302.609 36.6011V43.6793H286.657V45.7748ZM287.865 26.2946C287.38 26.8766 287.063 27.8313 286.896 29.1584C286.737 30.4855 286.657 32.4956 286.657 35.1966V38.1613H293.624V35.1966C293.624 32.5422 293.529 30.5321 293.346 29.1584C293.164 27.7847 292.83 26.8223 292.345 26.2558C291.861 25.697 291.114 25.4098 290.105 25.4098C289.088 25.4176 288.342 25.7125 287.865 26.2946Z" fill="black"/>
</svg>
